<svg id="Layer_1" data-name="Layer 1" xmlns="http://www.w3.org/2000/svg" xmlns:xlink="http://www.w3.org/1999/xlink" viewBox="0 0 998.56 1023.42"><defs><style>.cls-1{fill:#ff826a;}.cls-2{fill:url(#linear-gradient);}.cls-3{fill:url(#linear-gradient-2);}.cls-4{fill:url(#linear-gradient-3);}</style><linearGradient id="linear-gradient" x1="195.75" y1="5.34" x2="209.08" y2="568.64" gradientUnits="userSpaceOnUse"><stop offset="0" stop-color="#fff" stop-opacity="0"/><stop offset="0.03" stop-color="#fff8f7" stop-opacity="0.06"/><stop offset="0.14" stop-color="#ffddd6" stop-opacity="0.27"/><stop offset="0.26" stop-color="#ffc4b9" stop-opacity="0.47"/><stop offset="0.37" stop-color="#ffb0a1" stop-opacity="0.63"/><stop offset="0.49" stop-color="#ff9f8d" stop-opacity="0.76"/><stop offset="0.61" stop-color="#ff927e" stop-opacity="0.87"/><stop offset="0.74" stop-color="#ff8973" stop-opacity="0.94"/><stop offset="0.86" stop-color="#ff846c" stop-opacity="0.99"/><stop offset="1" stop-color="#ff826a"/></linearGradient><linearGradient id="linear-gradient-2" x1="518.22" y1="-0.7" x2="531.55" y2="562.59" xlink:href="#linear-gradient"/><linearGradient id="linear-gradient-3" x1="806.19" y1="-6.51" x2="819.52" y2="556.78" xlink:href="#linear-gradient"/></defs><title>logo</title><path class="cls-1" d="M1010.68,612.33l.6.7c0,227.16-223.44,411-499.58,411-275.81,0-499-184.13-499-411.67Z" transform="translate(-12.72 -0.58)"/><path class="cls-2" d="M285.55,541.8v.12L206,540.44l-.06,0c-6.1-6-49.11-48.84-64.62-87.25-16.71-41.38-19.75-91.38,0-150s56.23-50,45.6-172.43S141.3,1.49,141.3,1.49h78.9V2.1S255.14,9,265.78,131.43,240,245.23,220.2,303.86s-16.71,108.63,0,150S285.55,541.8,285.55,541.8Z" transform="translate(-12.72 -0.58)"/><path class="cls-3" d="M608.14,540.9V541l-79.56-1.48-.05,0c-6.11-6-49.13-48.83-64.63-87.23-16.71-41.39-19.75-91.39,0-150s56.23-50,45.59-172.42S463.9.58,463.9.58h78.9V1.2s35,6.9,45.59,129.32S562.55,244.31,542.8,303s-16.72,108.62,0,150S608.14,540.9,608.14,540.9Z" transform="translate(-12.72 -0.58)"/><path class="cls-4" d="M896.28,542.33v.12L816.72,541l-.05,0c-6.11-6-49.12-48.83-64.63-87.23-16.71-41.38-19.75-91.39,0-150s56.23-50,45.59-172.42S752,2,752,2h78.9v.62s35,6.9,45.59,129.32-25.84,113.8-45.59,172.43-16.72,108.62,0,150S896.28,542.33,896.28,542.33Z" transform="translate(-12.72 -0.58)"/></svg>