<svg id="Layer_1" data-name="Layer 1" xmlns="http://www.w3.org/2000/svg" viewBox="0 0 853.44 245.9"><defs><style>.cls-1{fill:#ff826a;}</style></defs><title>written logo</title><path class="cls-1" d="M100.57,222.33q5.31-7.8,24.57-37.52,16.44-25.41,52.47-73.23,20.92-27.72,37.86-46.49Q225.6,53.81,233.4,53.8A9.84,9.84,0,0,1,240.87,57a8.28,8.28,0,0,1,2.66,6.31q0,5.64-6.81,17.76-1.33,2.49-13.62,24.08Q201.19,144,193.38,160.56,172,206.05,162,238.1q-5.81,19.1-5.81,28.06a27.36,27.36,0,0,0,.33,4.15q.82,6.48.83,7.64a13.37,13.37,0,0,1-3.65,9c-2.1,2.54-4.48,3.82-7.14,3.82q-4.65,0-7.64-5.48-2.49-4.15-2.49-11.62,0-47,78.37-184.64-41,43.83-90.82,125.53-11,17.76-18.1,24.07-7,6.15-13.28,6.14a9.88,9.88,0,0,1-9.3-5.47,17.41,17.41,0,0,1-2-8.47q0-41.51,49.31-130.67a291.3,291.3,0,0,0-32.21,39.68,786.15,786.15,0,0,0-50.14,85.51Q37.8,246.41,22.86,281.6q-7.47,17.94-17.27,17.94a5,5,0,0,1-4.15-2.16,5.35,5.35,0,0,1-1.33-3.65q0-3.17,6.15-17.27,13.11-31,20.09-44.67A783.4,783.4,0,0,1,110.86,101q20.43-25.58,28.23-33.21,8.13-7.8,13.45-7.81a9.44,9.44,0,0,1,6.47,3,10.54,10.54,0,0,1,3.82,8q0,5-7,16.44a522.12,522.12,0,0,0-36.7,73.06Q104.72,196.93,100.57,222.33Z" transform="translate(-0.11 -53.8)"/><path class="cls-1" d="M319.9,182.48q-37.69,7.47-63.09,17.6-15.28,22.41-33.54,53.8l-8.8,15.44q-2.33,4.15-7.14,11.95-5.31,9.14-11.12,9.13a6.77,6.77,0,0,1-5.32-2.49,6.64,6.64,0,0,1-2.16-4.81q0-4.65,12.46-26.4,6.81-11.79,20.58-33.37,5.32-8.31,8.47-13.62A139.22,139.22,0,0,0,212,216.19a16.69,16.69,0,0,1-6.64,1.82,5.71,5.71,0,0,1-5.15-3,7.14,7.14,0,0,1-1.33-4.31c0-3.77,1.33-6.42,4-8q6.47-4,23.24-9.14a185.81,185.81,0,0,0,19.76-7.3q3.48-4.32,18.26-25.4,6.31-9.14,35.87-43.17A605.47,605.47,0,0,1,343.81,71.4q13.13-12.62,20.09-12.62a9.77,9.77,0,0,1,7.48,3.49,10.62,10.62,0,0,1,2.65,7q0,4.65-4.65,16.27-8,20.43-15.27,43.67-6.32,20.59-8.47,31.55a29.8,29.8,0,0,0,4-.17q4.81-.17,8-.16,9.63,0,9.63,7.3a11,11,0,0,1-2.07,6.23,8.35,8.35,0,0,1-4.73,3.74,25.29,25.29,0,0,1-5.48.33q-9.46,0-14.12,1.16-4,11.79-12.61,60.27-4.48,32.22-4.32,39.52,0,12-7.14,11.95-5.65,0-8.8-5.81-2.32-4-2.33-10.79,0-22.92,8.14-61.77Q317.91,192.94,319.9,182.48Zm4.65-17.93q1.5-4.81,7.64-25.74,1.5-5.48,7.64-21.75,6.14-16.77,9.79-26.9a126.92,126.92,0,0,0-21.91,18.93Q288.52,151.27,272.42,178q6.13-1.5,26.4-7.47Q304.63,168.86,324.55,164.55Z" transform="translate(-0.11 -53.8)"/><path class="cls-1" d="M410.06,201.08q-21.75,42.16-30.22,67.41-5,14.61-6.8,16.27-2.34,2.33-7.14,2.32a7.47,7.47,0,0,1-6.15-2.65,8.16,8.16,0,0,1-2-5.15q0-7.8,14.94-41.51a601.59,601.59,0,0,1,28.23-55.12Q398.61,175,398.61,171a10.7,10.7,0,0,1,4.31-9,7.47,7.47,0,0,1,4.65-1.66,15.3,15.3,0,0,1,6,1.66Q416,157.74,432,130.34q14.28-27.72,15.77-32.54-4.49,2-7.14,3.49a10.51,10.51,0,0,1-4.48,1.49,4.29,4.29,0,0,1-3.65-2.32,7.53,7.53,0,0,1-1.17-4.15q0-8.31,11.13-14.61a121.7,121.7,0,0,1,15.27-7.48,60.21,60.21,0,0,1,3.49-10.29,7.82,7.82,0,0,1,7.47-4.48q5.65,0,9.8,6.31a120,120,0,0,1,14.86-3.49,82.89,82.89,0,0,1,13.37-1.16q19.26,0,29.22,11,9.47,10.46,9.46,25.4,0,24.41-19.09,46.16-17.94,20.25-47.82,31.05a132.11,132.11,0,0,1-45.16,8.3q-3.82,0-11.63-.5a135,135,0,0,0,7.14,20.26q7.81,16.44,22.25,47.15,4.15,8.14,13.62,23.25a14,14,0,0,1,2.49,7.3q0,3.17-3.65,6-3.82,2.65-6.48,2.66-4.16,0-8.8-8.8-2.33-4.15-5.81-10.3Q429.65,248.91,410.06,201.08Zm20.26-35.87c4.2.23,7.36.33,9.46.33q34.38,0,64.26-24.07a89.63,89.63,0,0,0,21.25-24.57,35.16,35.16,0,0,0,5.15-18.27q0-9.8-6.23-14.69T505.53,79a64,64,0,0,0-22.74,4.32Q478.31,85,470,88.83q-5.81,13.29-18.93,38.44T430.32,165.21Z" transform="translate(-0.11 -53.8)"/><path class="cls-1" d="M551.36,275.79q43.83-79.86,83.85-138.8,18.6-27.41,42.67-57.95,9.47-12.12,16.44-12.12a6.1,6.1,0,0,1,4.81,2.32,5.49,5.49,0,0,1,1.33,3.49q0,4.32-8.46,14.78-55,68.73-124.37,193.1-6.32,11.29-9.46,14.94a10.22,10.22,0,0,1-8.3,4.15q-16.93,0-16.94-31.05,0-29.55,14.94-91.65,12.28-51.3,30.06-92,6.63-15.28,8.63-18.1a10.92,10.92,0,0,1,9.3-4.82,7.77,7.77,0,0,1,6,2.33,5.87,5.87,0,0,1,2,4.48,23.38,23.38,0,0,1-2,8.8l-6.31,14.94a678.52,678.52,0,0,0-29.39,85.18Q551,233.12,551,266.33Z" transform="translate(-0.11 -53.8)"/><path class="cls-1" d="M725.2,151.27l6.64-1.17q36.7-7,51.14-7,10.47,0,10.46,8.47,0,5.31-4.15,7.14c-1.88.88-5.09,1.44-9.63,1.66q-43,2.65-65.42,10.13-8.79,13.11-25.73,49a300.33,300.33,0,0,0-15.28,38.68c2.55-.88,5-1.77,7.47-2.65q24.57-8.31,36.2-10.8a153.4,153.4,0,0,1,29.06-3q9,0,13.28,2.15,3.82,1.83,3.82,7t-4.65,6.81q-2.16.66-10.29.83-44,2.33-78.37,21.58-4.49,2.49-7.64,2.49-4.65,0-8.3-4.81a13,13,0,0,1-3.16-8.14q0-4.14,10.46-30.55,15.78-40,43-87.67Q712.25,137,735,102.78q5.14-8,10-15.61-6.65-1.65-6.64-8.8,0-5.31,5.31-7.8,8.64-4,33.21-7.8,36.69-5.64,62.26-5.65,14.45,0,14.45,7.64,0,5.31-5,9-2.49,1.81-8,1.82c-.22,0-1.5,0-3.82-.16H831.3q-12,0-34.54,2.49a197.31,197.31,0,0,0-33.7,6.31,8,8,0,0,1,1.66,4q0,2.82-7.8,13l-8,12.29Q731.83,138.66,725.2,151.27Z" transform="translate(-0.11 -53.8)"/></svg>